<svg xmlns="http://www.w3.org/2000/svg" width="33.947" height="33.947" viewBox="0 0 33.947 33.947">
  <g id="그룹_1618" data-name="그룹 1618" transform="translate(-225.526 -566.412)">
    <g id="타원_403" data-name="타원 403" transform="translate(225.526 566.412)" fill="none" stroke="#f2ba00" stroke-width="3">
      <circle cx="16.974" cy="16.974" r="16.974" stroke="none"/>
      <circle cx="16.974" cy="16.974" r="15.474" fill="none"/>
    </g>
    <path id="confirmation_number_FILL0_wght400_GRAD0_opsz48" d="M5.038,19.076A1.006,1.006,0,0,1,4,18.038V15.39a1.859,1.859,0,0,0,1.064-.649,1.824,1.824,0,0,0,.424-1.2,1.858,1.858,0,0,0-.424-1.211A1.761,1.761,0,0,0,4,11.686V9.038A1.006,1.006,0,0,1,5.038,8H16.807a1.006,1.006,0,0,1,1.038,1.038v2.648a1.761,1.761,0,0,0-1.064.64,1.858,1.858,0,0,0-.424,1.211,1.824,1.824,0,0,0,.424,1.2,1.859,1.859,0,0,0,1.064.649v2.648a1.006,1.006,0,0,1-1.038,1.038Zm0-1.038H16.807V16.151a3.7,3.7,0,0,1-1.073-1.125,2.874,2.874,0,0,1,0-2.977,3.7,3.7,0,0,1,1.073-1.125V9.038H5.038v1.886A3.53,3.53,0,0,1,6.12,12.05a2.927,2.927,0,0,1,0,2.977,3.53,3.53,0,0,1-1.082,1.125Zm5.884-1.09a.532.532,0,1,0-.363-.156A.5.5,0,0,0,10.922,16.947Zm0-2.89a.532.532,0,1,0-.363-.156A.5.5,0,0,0,10.922,14.057Zm0-2.89a.532.532,0,1,0-.363-.156A.5.5,0,0,0,10.922,11.167Zm0,2.371Z" transform="translate(231.576 570.387)" fill="#231f46"/>
  </g>
</svg>
