<svg xmlns="http://www.w3.org/2000/svg" width="33.947" height="33.947" viewBox="0 0 33.947 33.947">
  <g id="그룹_1623" data-name="그룹 1623" transform="translate(-170.526 -1371.045)">
    <g id="announcement_black_24dp" transform="translate(181.342 1382.045)">
      <path id="패스_7073" data-name="패스 7073" d="M0,0H12.316V12.316H0Z" fill="none"/>
      <path id="패스_7074" data-name="패스 7074" d="M11.853,2H3.095A1.1,1.1,0,0,0,2,3.095v9.853l2.19-2.19h7.663a1.1,1.1,0,0,0,1.095-1.095V3.095A1.1,1.1,0,0,0,11.853,2Zm0,7.663H3.735l-.64.64V3.095h8.758ZM6.926,3.642H8.021V6.926H6.926Zm0,4.379H8.021V9.116H6.926Z" transform="translate(-1.316 -1.316)" fill="#fff"/>
    </g>
    <g id="그룹_1622" data-name="그룹 1622" transform="translate(-55 804.633)">
      <g id="타원_403" data-name="타원 403" transform="translate(225.526 566.412)" fill="none" stroke="#f2ba00" stroke-width="3">
        <circle cx="16.974" cy="16.974" r="16.974" stroke="none"/>
        <circle cx="16.974" cy="16.974" r="15.474" fill="none"/>
      </g>
    </g>
  </g>
</svg>
