<svg xmlns="http://www.w3.org/2000/svg" width="33.947" height="33.947" viewBox="0 0 33.947 33.947">
  <g id="그룹_1617" data-name="그룹 1617" transform="translate(-169.526 -442.412)">
    <g id="타원_46" data-name="타원 46" transform="translate(169.526 442.412)" fill="none" stroke="#f2ba00" stroke-width="3">
      <circle cx="16.974" cy="16.974" r="16.974" stroke="none"/>
      <circle cx="16.974" cy="16.974" r="15.474" fill="none"/>
    </g>
    <path id="weekend_FILL0_wght400_GRAD0_opsz48" d="M4.437,10.35A2.34,2.34,0,0,1,6.787,8h9.575a2.34,2.34,0,0,1,2.35,2.35v1.806a2.275,2.275,0,0,1,1.741.457,1.981,1.981,0,0,1,.7,1.632v5.331a2.34,2.34,0,0,1-2.35,2.35H4.35a2.266,2.266,0,0,1-1.665-.685A2.266,2.266,0,0,1,2,19.577V14.245a1.967,1.967,0,0,1,.707-1.632,2.273,2.273,0,0,1,1.73-.457Zm1.306,0v2.437a3.087,3.087,0,0,1,.479.6,1.711,1.711,0,0,1,.174.86v2.7H16.754v-2.7a1.711,1.711,0,0,1,.174-.86,3.087,3.087,0,0,1,.479-.6V10.35a1.006,1.006,0,0,0-1.045-1.045H6.787A1.006,1.006,0,0,0,5.743,10.35Zm12.317,7.9H5.09v-4a1.206,1.206,0,0,0-.054-.381.717.717,0,0,0-.457-.457,1.206,1.206,0,0,0-.381-.054.9.9,0,0,0-.664.228.9.9,0,0,0-.228.664v5.331A1.006,1.006,0,0,0,4.35,20.621H18.8a1.006,1.006,0,0,0,1.045-1.045V14.245a.8.8,0,0,0-.892-.892,1.206,1.206,0,0,0-.381.054.629.629,0,0,0-.272.174.928.928,0,0,0-.174.283,1.021,1.021,0,0,0-.065.381Zm-6.485,0Zm0,2.372Zm0-3.678Z" transform="translate(174.925 444.422)" fill="#231f46"/>
  </g>
</svg>
