<svg xmlns="http://www.w3.org/2000/svg" width="78" height="78" viewBox="0 0 78 78">
  <g id="그룹_1579" data-name="그룹 1579" transform="translate(-921 -3951.088)">
    <g id="타원_59" data-name="타원 59" transform="translate(921 3951.088)" fill="none" stroke="#f2ba00" stroke-width="3">
      <circle cx="39" cy="39" r="39" stroke="none"/>
      <circle cx="39" cy="39" r="37.5" fill="none"/>
    </g>
    <g id="announcement_black_24dp" transform="translate(942 3972.088)">
      <path id="패스_7073" data-name="패스 7073" d="M0,0H36V36H0Z" fill="none"/>
      <path id="패스_7074" data-name="패스 7074" d="M30.8,2H5.2A3.209,3.209,0,0,0,2,5.2V34l6.4-6.4H30.8A3.209,3.209,0,0,0,34,24.4V5.2A3.209,3.209,0,0,0,30.8,2Zm0,22.4H7.072L5.2,26.272V5.2H30.8ZM16.4,6.8h3.2v9.6H16.4Zm0,12.8h3.2v3.2H16.4Z"/>
    </g>
  </g>
</svg>
