<svg xmlns="http://www.w3.org/2000/svg" width="78" height="78" viewBox="0 0 78 78">
  <defs>
    <style>
      .cls-1, .cls-3 {
        fill: none;
      }

      .cls-1 {
        stroke: #f2ba00;
        stroke-width: 3px;
      }

      .cls-2 {
        stroke: none;
      }
    </style>
  </defs>
  <g id="그룹_906" data-name="그룹 906" transform="translate(-921 -4432)">
    <g id="타원_46" data-name="타원 46" class="cls-1" transform="translate(921 4432)">
      <circle class="cls-2" cx="39" cy="39" r="39"/>
      <circle class="cls-3" cx="39" cy="39" r="37.5"/>
    </g>
    <path id="weekend_FILL0_wght400_GRAD0_opsz48" d="M7.6,13.4A5.378,5.378,0,0,1,13,8H35a5.378,5.378,0,0,1,5.4,5.4v4.15a5.226,5.226,0,0,1,4,1.05A4.552,4.552,0,0,1,46,22.35V34.6A5.378,5.378,0,0,1,40.6,40H7.4a5.208,5.208,0,0,1-3.825-1.575A5.208,5.208,0,0,1,2,34.6V22.35A4.521,4.521,0,0,1,3.625,18.6,5.224,5.224,0,0,1,7.6,17.55Zm3,0V19a7.094,7.094,0,0,1,1.1,1.375,3.932,3.932,0,0,1,.4,1.975v6.2H35.9v-6.2a3.932,3.932,0,0,1,.4-1.975A7.094,7.094,0,0,1,37.4,19V13.4A2.311,2.311,0,0,0,35,11H13a2.311,2.311,0,0,0-2.4,2.4ZM38.9,31.55H9.1v-9.2a2.77,2.77,0,0,0-.125-.875,1.648,1.648,0,0,0-1.05-1.05A2.77,2.77,0,0,0,7.05,20.3a2.065,2.065,0,0,0-1.525.525A2.065,2.065,0,0,0,5,22.35V34.6A2.311,2.311,0,0,0,7.4,37H40.6A2.311,2.311,0,0,0,43,34.6V22.35a1.839,1.839,0,0,0-2.05-2.05,2.77,2.77,0,0,0-.875.125,1.445,1.445,0,0,0-.625.4,2.133,2.133,0,0,0-.4.65,2.346,2.346,0,0,0-.15.875Zm-14.9,0ZM24,37Zm0-8.45Z" transform="translate(936 4447)"/>
  </g>
</svg>
