<svg xmlns="http://www.w3.org/2000/svg" width="78" height="78" viewBox="0 0 78 78">
  <g id="그룹_1586" data-name="그룹 1586" transform="translate(-921 -6606.846)">
    <g id="그룹_907" data-name="그룹 907">
      <g id="타원_44" data-name="타원 44" transform="translate(921 6606.846)" fill="none" stroke="#f2ba00" stroke-width="3">
        <circle cx="39" cy="39" r="39" stroke="none"/>
        <circle cx="39" cy="39" r="37.5" fill="none"/>
      </g>
      <path id="confirmation_number_FILL0_wght400_GRAD0_opsz48" d="M7,40a2.907,2.907,0,0,1-3-3V29.35a5.372,5.372,0,0,0,3.075-1.875A5.27,5.27,0,0,0,8.3,24a5.368,5.368,0,0,0-1.225-3.5A5.087,5.087,0,0,0,4,18.65V11A2.907,2.907,0,0,1,7,8H41a2.907,2.907,0,0,1,3,3v7.65a5.087,5.087,0,0,0-3.075,1.85A5.368,5.368,0,0,0,39.7,24a5.27,5.27,0,0,0,1.225,3.475A5.372,5.372,0,0,0,44,29.35V37a2.907,2.907,0,0,1-3,3Zm0-3H41V31.55a10.679,10.679,0,0,1-3.1-3.25,8.3,8.3,0,0,1,0-8.6A10.679,10.679,0,0,1,41,16.45V11H7v5.45a10.2,10.2,0,0,1,3.125,3.25,8.456,8.456,0,0,1,0,8.6A10.2,10.2,0,0,1,7,31.55Zm17-3.15a1.538,1.538,0,1,0-1.05-.45A1.439,1.439,0,0,0,24,33.85Zm0-8.35a1.538,1.538,0,1,0-1.05-.45A1.439,1.439,0,0,0,24,25.5Zm0-8.35a1.538,1.538,0,1,0-1.05-.45A1.439,1.439,0,0,0,24,17.15ZM24,24Z" transform="translate(936 6622)" fill="#fff"/>
      <g id="타원_402" data-name="타원 402" transform="translate(921 6606.846)" fill="none" stroke="#f2ba00" stroke-width="3">
        <circle cx="39" cy="39" r="39" stroke="none"/>
        <circle cx="39" cy="39" r="37.5" fill="none"/>
      </g>
      <path id="confirmation_number_FILL0_wght400_GRAD0_opsz48-2" data-name="confirmation_number_FILL0_wght400_GRAD0_opsz48" d="M7,40a2.907,2.907,0,0,1-3-3V29.35a5.372,5.372,0,0,0,3.075-1.875A5.27,5.27,0,0,0,8.3,24a5.368,5.368,0,0,0-1.225-3.5A5.087,5.087,0,0,0,4,18.65V11A2.907,2.907,0,0,1,7,8H41a2.907,2.907,0,0,1,3,3v7.65a5.087,5.087,0,0,0-3.075,1.85A5.368,5.368,0,0,0,39.7,24a5.27,5.27,0,0,0,1.225,3.475A5.372,5.372,0,0,0,44,29.35V37a2.907,2.907,0,0,1-3,3Zm0-3H41V31.55a10.679,10.679,0,0,1-3.1-3.25,8.3,8.3,0,0,1,0-8.6A10.679,10.679,0,0,1,41,16.45V11H7v5.45a10.2,10.2,0,0,1,3.125,3.25,8.456,8.456,0,0,1,0,8.6A10.2,10.2,0,0,1,7,31.55Zm17-3.15a1.538,1.538,0,1,0-1.05-.45A1.439,1.439,0,0,0,24,33.85Zm0-8.35a1.538,1.538,0,1,0-1.05-.45A1.439,1.439,0,0,0,24,25.5Zm0-8.35a1.538,1.538,0,1,0-1.05-.45A1.439,1.439,0,0,0,24,17.15ZM24,24Z" transform="translate(936 6622)" fill="#0a0a0a"/>
    </g>
  </g>
</svg>
